PathFileType	4	(X/Y/Z)	Patient4_TMGait_0pt7_01_right_04.trc.trc
DataRate	CameraRate	NumFrames	NumMarkers	Units	OrigDataRate	OrigDataStartFrame	OrigNumFrames
84.337349397590	84.337349397590	6	33	mm	84.337349397590	1	       141
Frame#	Time	Sacral			L.Shoulder			Chest			R.Shoulder			Neck			R.ASIS			L.ASIS			R.Thigh.Superior			R.Thigh.Lateral			R.Thigh.Inferior			R.Patella			L.Thigh.Superior			L.Thigh.Lateral			L.Thigh.Inferior			L.Patella			L.Shank.Superior			L.Shank.Lateral			L.Shank.Inferior			R.Shank.Superior			R.Shank.Lateral			R.Shank.Inferior			R.Heel			R.Midfoot.Superior			R.Midfoot.Lateral			R.Toe			L.Heel			L.Midfoot.Lateral			L.Midfoot.Superior			L.Toe			L.Elbow			L.Wrist			R.Elbow			R.Wrist			
		X1	Y1	Z1	X2	Y2	Z2	X3	Y3	Z3	X4	Y4	Z4	X5	Y5	Z5	X6	Y6	Z6	X7	Y7	Z7	X8	Y8	Z8	X9	Y9	Z9	X10	Y10	Z10	X11	Y11	Z11	X12	Y12	Z12	X13	Y13	Z13	X14	Y14	Z14	X15	Y15	Z15	X16	Y16	Z16	X17	Y17	Z17	X18	Y18	Z18	X19	Y19	Z19	X20	Y20	Z20	X21	Y21	Z21	X22	Y22	Z22	X23	Y23	Z23	X24	Y24	Z24	X25	Y25	Z25	X26	Y26	Z26	X27	Y27	Z27	X28	Y28	Z28	X29	Y29	Z29	X30	Y30	Z30	X31	Y31	Z31	X32	Y32	Z32	X33	Y33	Z33	

1	4.040000000000	691.925279594079	1011.144771552598	477.133274973784	899.496219561557	1433.678500933949	305.335205292540	982.179262880832	1363.642385920130	478.474604467129	880.791948503792	1445.317705073273	639.539654405911	886.055898053305	1497.023487097821	459.590988271404	906.776824530559	948.293996114033	614.484239651811	921.025511310741	963.395263747417	339.198059716890	992.076135584904	778.487924631407	595.986360852457	946.621137791843	658.051377060034	667.416650178933	1045.193320809228	619.494016317424	599.625136715150	1061.897703961753	504.800301028000	623.918232934889	963.499550105328	752.053292362722	369.478675236096	874.741060804398	638.969291051130	305.666266646825	952.656984701689	559.458965795279	374.227647369464	950.314187276503	490.831292990617	384.853649122536	925.574600921228	419.322180773880	374.505714747007	840.138379314603	304.065324065262	319.201888458264	888.508331870711	194.079027002612	393.960489262627	982.350738238856	431.169008580295	621.476671182278	852.695301450381	397.811410220475	667.386799460623	838.183566242908	289.945207042572	616.243733897582	638.324442432499	237.430647102475	564.345271664624	799.480205641569	174.874404751290	627.841441717127	685.937895780818	177.949337047155	645.914686037104	854.616748306107	58.752189816536	662.833692100641	759.898288544339	37.407494931167	432.299821251754	834.769235608745	35.227131084916	351.997566524496	917.232551274631	96.080084396425	381.029693239028	1046.449075070444	45.057594294068	353.659266604661	900.373928933355	1089.383864620285	173.552023864344	1066.890631641775	888.286278037298	190.459230298400	791.956784389921	1107.188978905330	754.849275627864	890.845313229121	862.991832262273	756.214131261611	
2	4.051857142857	691.026525265573	1011.450900952733	475.447239913003	900.507959777641	1434.540184354590	305.597641489607	981.805182825579	1363.655915176292	479.063659955894	879.650651757385	1445.013298057816	639.756058008974	886.002078405888	1497.344298975344	460.002659005988	905.156433765826	948.856275703350	614.002316658501	921.188726920190	963.843862629386	338.747271149555	992.756371965820	782.012322269979	595.607316254878	949.381543022007	660.803799107802	667.208145884575	1048.433173998875	623.850661335601	599.367671936076	1067.767859363632	510.448960397193	623.880587541459	960.013626272599	751.058180398502	369.647450714410	869.993221147371	639.082975914855	304.873981706830	946.032284293025	558.521840388613	373.769629429961	942.635579585437	490.235674859045	384.315669389055	917.863112321594	419.056352837706	373.891826119737	832.171082666565	304.036597830910	318.610459569751	880.032369617277	193.979611561277	393.625983708138	991.569088794537	434.181566024647	621.840412755774	864.345599149653	394.453615589789	668.076830565417	855.434301528431	285.977849013940	617.438277058696	659.165249486185	223.009417254878	566.177767310570	822.905760076048	169.324457813480	629.591160237392	709.714226541156	166.734169005777	647.980606312476	883.702055802981	56.883625370375	665.216404196764	750.999292886448	37.450532182010	432.257415377335	825.973852846399	35.207600104705	351.966198075515	908.476876925144	96.020200791865	380.914652571080	1037.698355810979	44.860533256271	353.651091802486	904.806791012832	1091.616098788660	171.462578146088	1081.597919778493	901.797314724232	190.433477740472	784.529696914363	1108.496963272454	753.558111440775	863.202851030985	859.662878256526	757.352237579562	
3	4.063714285714	690.142995044791	1011.727182048917	473.817256797672	901.513524184342	1435.348208965954	305.870051483691	981.443332825441	1363.636039843279	479.658176756127	878.531504724224	1444.691524309039	639.979409809778	885.957080382659	1497.627038105034	460.413228879925	903.571933925578	949.366596871402	613.555443451167	921.271887875935	964.230725441398	338.335520737055	993.392166124677	785.380929071603	595.250850025188	951.998896068695	663.406118369475	666.988728085232	1051.479746621838	627.982230820000	599.092929009823	1073.348860542166	515.910624473451	623.831675800639	956.581272718436	750.066599943805	369.820106571924	865.308757388647	639.187772785964	304.089456113136	939.510101823711	557.590829539378	373.289249310087	935.075220877538	489.640491636522	383.757796561009	910.266607652396	418.785834342259	373.272428453365	824.302727659270	304.006673167381	318.019165643139	871.658960222129	193.875767849049	393.281398995970	1000.559157539260	437.055416240893	622.191406734767	875.907498921712	390.931172660406	668.835580983256	872.632522249695	281.911044993561	618.685701396121	680.101398332220	208.483491184149	568.144098043878	846.361865862525	163.694313738638	631.407437266998	733.580969464138	155.436616849877	650.147484684679	912.800080235634	54.984917249594	667.619142807470	742.212076134476	37.494946971644	432.211819836957	817.279951126788	35.185987494051	351.934274421068	899.824545062578	95.957826259689	380.797974416065	1029.051170177582	44.655157189306	353.642589802058	909.151619743606	1093.781197873669	169.434028100327	1095.979409374200	915.249207104517	190.461342547988	777.137164420239	1109.819397400840	752.285709013151	836.150751726169	856.710270454679	758.376456655284	
4	4.075571428571	689.299451827181	1011.932308369739	472.301757772196	902.503001820122	1436.041351927036	306.175046965857	981.103606402925	1363.543442799876	480.276232010051	877.452553811587	1444.329725695929	640.226182300029	885.926917633217	1497.825942918970	460.832833750449	902.064077227523	949.765330449222	613.185165807887	921.227963923527	964.500669004388	338.006523843298	993.898993060041	788.386032665271	594.945985053700	954.273525179144	665.678900016909	666.767984695165	1054.085439917355	631.625335626366	598.794967677421	1078.310750504687	520.989408775113	623.759133308179	953.234594239136	749.067628117699	369.996611870905	860.706740023601	639.276210763128	303.325326818873	933.133143551609	556.666218328240	372.770694161864	927.685281786255	489.042129450043	383.164379309651	902.827202936728	418.507736746363	372.643684001250	816.558428565227	303.977796049944	317.431324197760	863.417849445894	193.766250663222	392.920069667828	1009.093245778869	439.668678303298	622.533775785641	887.350440964958	387.091161826006	669.733602317458	889.833028031584	277.711056054249	620.048050032851	701.458044462629	193.785804567279	570.368784554874	870.055772125322	158.014414067726	633.361854819410	757.853649005411	144.045707594318	652.509202263350	942.110361349363	53.204598976640	670.063102765583	733.568604800608	37.544253482965	432.160620824491	808.710835963335	35.162044938980	351.901822415057	891.300755855702	95.891380887361	380.678745897722	1020.531642690416	44.435147496644	353.633099870018	913.351759347746	1095.815539727483	167.529414188366	1109.748815251727	928.646166026619	190.615107240926	769.761340770575	1111.209085203492	751.051974218903	810.167925265140	854.495251390416	759.187360755186	
5	4.087428571429	688.520480152689	1012.031036069179	470.949235997420	903.464693332426	1436.567477066479	306.535302672528	980.793193647821	1363.345860338489	480.935903035216	876.427217914516	1443.909053362802	640.512572428896	885.916018574379	1497.902593917069	461.273568781601	900.667462333098	950.001086603552	612.924803187684	921.037837908372	964.615867847045	337.793925406230	994.193692233838	790.839550856863	594.714379796979	956.018961661834	667.465246042678	666.559064970253	1056.025332127239	634.549329562093	598.473539217643	1082.371835622400	525.520617250426	623.652430727114	949.997226185474	748.047537208538	370.168331783979	856.186231807051	639.343940864954	302.594446169582	926.915992718368	555.747018353948	372.203506718287	920.485722325177	488.436923928960	382.525090202986	895.554900565963	418.221243929739	372.003595495272	808.933641476205	303.953515550722	316.852778638319	855.309518506567	193.650796976941	392.539520456635	1016.984797812477	441.931403333220	622.875785493343	898.670877878384	382.826466631850	670.828862718541	907.114481809331	273.388641398903	621.577635208122	723.581111746703	178.908750309244	572.943970526756	894.213895257020	152.361560009993	635.511694769227	782.861244161393	132.600280664739	655.130027534994	971.845191858852	51.728165289808	672.559909507770	725.068532717124	37.601589560773	432.101954666937	800.260663028518	35.136460996795	351.869088405112	882.901205762265	95.820023983730	380.556766271105	1012.133511795653	44.196895636022	353.621981259363	917.375415154384	1097.667470250890	165.800197619419	1122.685271126045	942.001460907628	190.958797749104	762.366911965518	1112.725809866570	749.876398434992	785.609497888478	853.283826671302	759.710577534980	
6	4.099285714286	687.830066305102	1011.996470701739	469.795841874431	904.384445007851	1436.887955277338	306.971188635425	980.516174841568	1363.021713270556	481.653220612653	875.464507766587	1443.416836832630	640.853254028373	885.926223305466	1497.829370823823	461.748320224735	899.410431742771	950.035675998882	612.797542597829	920.713124056162	964.558652111188	337.719092846194	994.201055811638	792.586316047082	594.570063189431	957.076796950292	668.643316597383	666.379747504200	1057.116774565647	636.575260935786	598.136109615822	1085.321513390245	529.380138025727	623.504353011886	946.886978591693	746.992539005303	370.319890597856	851.733247572537	639.389978670838	301.910661356625	920.852259030059	554.832374606404	371.586092784401	913.472721162656	487.822443741317	381.837966327879	888.436767066079	417.928113917386	371.354054302184	801.405604627398	303.938422374487	316.292828738610	847.316644957284	193.530459754475	392.142972553150	1024.093048958165	443.792066844940	623.229630057234	909.869669373009	378.097616699351	672.156493289154	924.537546757509	269.010465859437	623.307505257637	746.759707916850	163.937803886105	575.910931445544	919.010994042013	146.868891123329	637.888178072487	808.864657815786	121.212948794059	658.030234738739	1002.149750785112	50.771595378724	675.105535778453	716.691125218545	37.669388022432	432.035009464476	791.906735673474	35.110957722037	351.836624719411	874.603983739633	95.744015716789	380.432925890281	1003.832326135084	43.940432680969	353.608710941765	921.211986019884	1099.299650094896	164.284499190248	1134.633597914532	955.311898614238	191.541812543518	754.919535111366	1114.427617506796	748.778240087765	762.709416220381	853.219033737725	759.906128885373	
